<svg width="24" height="24" viewBox="0 0 24 24" fill="none" xmlns="http://www.w3.org/2000/svg">
<path fill-rule="evenodd" clip-rule="evenodd" d="M19.923 2H7.30123C6.74331 2 6.20825 2.21113 5.81374 2.5869C5.41924 2.96267 5.19761 3.47229 5.19761 4.0037V16.0259H3.09398C2.80745 16.0275 2.53192 16.1312 2.32167 16.3166C2.11142 16.502 1.98168 16.7558 1.95802 17.0278C1.93126 17.8395 2.06691 18.6487 2.35772 19.4122C2.66448 20.1819 3.21271 20.843 3.92784 21.3054C4.64298 21.7679 5.49031 22.0093 6.3546 21.9969H15.9366C17.3587 22.0434 18.745 21.5662 19.8073 20.6645C20.4687 20.1073 21.0032 19.4269 21.3777 18.6653C21.7522 17.9037 21.9587 17.0769 21.9845 16.2363V3.96359C21.9737 3.44601 21.7531 2.95246 21.3688 2.58641C20.9845 2.22036 20.4664 2.01025 19.923 2ZM17.1462 20.0333H7.30123L5.31332 19.9431C5.27532 19.952 5.2356 19.952 5.19761 19.9431C5.14438 19.9252 5.09716 19.8941 5.06086 19.8529C4.60966 19.336 4.30222 18.7194 4.16683 18.0597H16.7255C16.774 18.6822 16.8975 19.2974 17.0936 19.893C17.1061 19.9108 17.1148 19.9392 17.1243 19.9697L17.1243 19.9698L17.1243 19.9698L17.1243 19.9698C17.1308 19.9908 17.1376 20.0129 17.1462 20.0333ZM19.923 16.2764C19.9206 17.1775 19.5728 18.0468 18.9448 18.7208C18.8341 18.1799 18.7917 17.6283 18.8186 17.0778C18.8186 16.8121 18.7077 16.5573 18.5105 16.3694C18.3982 16.2625 18.2632 16.1822 18.1163 16.1329C18.2083 15.984 18.2611 15.8105 18.2611 15.6253C18.2611 15.072 17.7902 14.6234 17.2093 14.6234C16.6284 14.6234 16.1575 15.072 16.1575 15.6253C16.1575 15.7874 16.1979 15.9405 16.2696 16.0759H15.0776C15.1494 15.9405 15.1898 15.7874 15.1898 15.6253C15.1898 15.072 14.7189 14.6234 14.138 14.6234H10.362C9.7811 14.6234 9.31019 15.072 9.31019 15.6253C9.31019 15.7874 9.3506 15.9405 9.42235 16.0759H7.24865V4.05372H19.8704L19.923 16.2764ZM15.7157 7.00925V8.0111H11.5085V7.00925H15.7157ZM16.7675 5.00555H10.4567C10.1777 5.00555 9.91018 5.11106 9.71293 5.29894C9.51567 5.48682 9.40484 5.74169 9.40484 6.0074V9.01295C9.40484 9.27866 9.51567 9.53341 9.71293 9.72129C9.91018 9.90918 10.1777 10.0148 10.4567 10.0148H16.7675C17.0465 10.0148 17.314 9.90918 17.5113 9.72129C17.7085 9.53341 17.8193 9.27866 17.8193 9.01295V6.0074C17.8193 5.74169 17.7085 5.48682 17.5113 5.29894C17.314 5.11106 17.0465 5.00555 16.7675 5.00555ZM10.4567 11.0167H16.7675C17.3484 11.0167 17.8193 11.4652 17.8193 12.0185C17.8193 12.5718 17.3484 13.0204 16.7675 13.0204H10.4567C9.87576 13.0204 9.40485 12.5718 9.40485 12.0185C9.40485 11.4652 9.87576 11.0167 10.4567 11.0167Z" fill="#CCCCCC"/>
</svg>
