<svg width="24" height="24" viewBox="0 0 24 24" fill="none" xmlns="http://www.w3.org/2000/svg">
<path d="M21 5.01001C21 4.47958 20.7893 3.97084 20.4142 3.59576C20.0391 3.22069 19.5304 3.01001 19 3.01001H4.99998C4.46955 3.01001 3.96086 3.22069 3.58578 3.59576C3.21071 3.97084 3 4.47958 3 5.01001V18.95C3.0006 19.3702 3.13355 19.7796 3.37999 20.12C3.56609 20.378 3.81107 20.5879 4.09456 20.7323C4.37805 20.8767 4.69187 20.9512 5.00999 20.95H5.09001H5.18001H18.95C19.3506 20.9503 19.742 20.8305 20.0736 20.6058C20.4053 20.3812 20.6618 20.0622 20.81 19.6901C20.9024 19.4648 20.95 19.2235 20.95 18.98L21 5.01001ZM6.18001 18.95L8.02998 15.1901L9.7 18.36C9.78737 18.5242 9.91882 18.6609 10.0796 18.7545C10.2403 18.8481 10.424 18.8951 10.61 18.89C10.794 18.8867 10.9735 18.8327 11.1288 18.7339C11.2841 18.6351 11.4091 18.4952 11.49 18.33L14.49 12.16L18.21 18.96L6.18001 18.95ZM15.31 9.51001C15.2213 9.34763 15.0892 9.21302 14.9286 9.12122C14.7679 9.02941 14.585 8.98399 14.4 8.98999C14.2177 8.99513 14.0403 9.05004 13.8869 9.14874C13.7336 9.24745 13.6102 9.38619 13.53 9.54999L10.53 15.6801L8.86 12.52C8.7734 12.3573 8.64352 12.2217 8.4847 12.1282C8.32587 12.0346 8.14429 11.9868 7.96001 11.99C7.776 11.9933 7.59647 12.0474 7.44121 12.1462C7.28594 12.245 7.16095 12.3847 7.08 12.55L4.98 16.8199V5H18.98V16.23L15.31 9.51001Z" fill="#CCCCCC"/>
<path d="M9.77002 5.31006C9.17667 5.31006 8.59665 5.48603 8.1033 5.81567C7.60995 6.14532 7.22544 6.61381 6.99838 7.16199C6.77132 7.71017 6.71191 8.31338 6.82767 8.89532C6.94342 9.47727 7.22912 10.0118 7.64868 10.4314C8.06824 10.851 8.60281 11.1367 9.18475 11.2524C9.76669 11.3682 10.3699 11.3088 10.9181 11.0817C11.4662 10.8547 11.9348 10.4702 12.2644 9.97681C12.5941 9.48346 12.77 8.9034 12.77 8.31006C12.77 7.51441 12.4539 6.75133 11.8913 6.18872C11.3287 5.62611 10.5657 5.31006 9.77002 5.31006ZM9.77002 9.31006C9.57224 9.31006 9.37889 9.25142 9.21445 9.14154C9.05 9.03166 8.92182 8.87548 8.84613 8.69275C8.77044 8.51002 8.75063 8.30897 8.78921 8.11499C8.8278 7.92101 8.92304 7.74282 9.0629 7.60297C9.20275 7.46311 9.38094 7.36787 9.57492 7.32928C9.7689 7.2907 9.96998 7.31048 10.1527 7.38617C10.3354 7.46186 10.4916 7.59007 10.6015 7.75452C10.7114 7.91897 10.77 8.11228 10.77 8.31006C10.7674 8.57354 10.6609 8.82536 10.4736 9.01074C10.2863 9.19612 10.0335 9.30006 9.77002 9.30005V9.31006Z" fill="#CCCCCC"/>
</svg>
