<svg width="24" height="24" viewBox="0 0 24 24" fill="none" xmlns="http://www.w3.org/2000/svg">
<path d="M13.88 20.96V14.96L9.87997 15.01V21.01C9.87997 21.2752 9.7746 21.5295 9.58706 21.717C9.39953 21.9046 9.14519 22.01 8.87997 22.01H5.60998C4.87763 21.9636 4.1933 21.6296 3.70625 21.0807C3.21919 20.5318 2.96891 19.8126 3.00997 19.08V9.6499C2.99937 9.17493 3.10172 8.70429 3.3086 8.27661C3.51549 7.84893 3.821 7.47646 4.19998 7.18994L10.6 2.47998C11.008 2.17794 11.5023 2.01489 12.01 2.01489C12.5177 2.01489 13.0119 2.17794 13.42 2.47998L19.83 7.18994C20.2071 7.47752 20.5107 7.85046 20.7158 8.27808C20.9209 8.7057 21.0217 9.17578 21.01 9.6499V19.08C21.051 19.8126 20.8007 20.5318 20.3137 21.0807C19.8266 21.6296 19.1423 21.9636 18.41 22.01H14.88C14.7484 22.0108 14.6179 21.9854 14.4961 21.9357C14.3742 21.8859 14.2634 21.8127 14.17 21.72C14.0773 21.6265 14.004 21.5158 13.9542 21.3939C13.9044 21.2721 13.8792 21.1416 13.88 21.01V20.96ZM15.88 19.96H18.41C18.7 19.96 19.01 19.5599 19.01 19.0199V9.58997C19.0172 9.4304 18.9887 9.27123 18.9264 9.12415C18.8641 8.97706 18.7696 8.84582 18.65 8.73999L12.24 4.02991C12.1753 3.97624 12.094 3.9469 12.01 3.9469C11.926 3.9469 11.8446 3.97624 11.78 4.02991L5.37997 8.73999C5.25906 8.84532 5.16312 8.97627 5.09912 9.12329C5.03512 9.27032 5.00468 9.4297 5.00997 9.58997V19.08C5.00997 19.62 5.32998 20.0199 5.60998 20.0199H7.87997V14.9299C7.89558 14.41 8.11317 13.9165 8.48657 13.5543C8.85996 13.1921 9.35977 12.9898 9.87997 12.99H13.88C14.4002 12.9898 14.9 13.1921 15.2734 13.5543C15.6468 13.9165 15.8644 14.41 15.88 14.9299V19.96Z" fill="#CCCCCC"/>
</svg>
