<svg width="24" height="25" viewBox="0 0 24 25" fill="none" xmlns="http://www.w3.org/2000/svg">
<g clip-path="url(#clip0_285:5240)">
<path d="M22.0666 0.5H1.93344C0.865631 0.5 0 1.36563 0 2.43344V22.5666C0 23.6344 0.865631 24.5 1.93344 24.5H22.0666C23.1344 24.5 24 23.6344 24 22.5666V2.43344C24 1.36563 23.1344 0.5 22.0666 0.5Z" fill="#FAE300"/>
<path d="M11.9286 4.22461C6.81127 4.22461 2.66455 7.50397 2.66455 11.5499C2.66455 14.1827 4.42231 16.4905 7.05991 17.7817C6.86791 18.5051 6.35815 20.403 6.25639 20.8086C6.13111 21.3126 6.44119 21.3059 6.64423 21.17C6.80359 21.064 9.18343 19.4464 10.2102 18.7485C10.7796 18.8327 11.3544 18.8749 11.93 18.8747C17.0473 18.8747 21.194 15.5949 21.194 11.5499C21.194 7.50493 17.0458 4.22461 11.93 4.22461" fill="#391B1B"/>
<path d="M8.1997 9.39206H5.4901C5.36789 9.39206 5.25068 9.44061 5.16426 9.52703C5.07785 9.61344 5.0293 9.73065 5.0293 9.85287C5.0293 9.97508 5.07785 10.0923 5.16426 10.1787C5.25068 10.2651 5.36789 10.3137 5.4901 10.3137H6.3709V13.5594C6.3714 13.6786 6.41895 13.7927 6.50319 13.8769C6.58743 13.9611 6.70153 14.0087 6.82066 14.0092H6.91906C7.0381 14.0087 7.15211 13.9611 7.23619 13.8768C7.32027 13.7926 7.36761 13.6785 7.36786 13.5594V10.3122H8.1997C8.32191 10.3122 8.43912 10.2637 8.52554 10.1773C8.61196 10.0908 8.6605 9.97364 8.6605 9.85142C8.6605 9.72921 8.61196 9.61201 8.52554 9.52559C8.43912 9.43917 8.32191 9.39063 8.1997 9.39062V9.39206Z" fill="#FAE300"/>
<path d="M14.7115 13.144H13.4539V9.82718C13.456 9.76022 13.4446 9.69354 13.4204 9.63107C13.3962 9.5686 13.3597 9.51163 13.3131 9.46354C13.2665 9.41544 13.2107 9.3772 13.149 9.35109C13.0873 9.32498 13.021 9.31152 12.954 9.31152C12.887 9.31152 12.8207 9.32498 12.759 9.35109C12.6974 9.3772 12.6415 9.41544 12.5949 9.46354C12.5483 9.51163 12.5118 9.5686 12.4876 9.63107C12.4634 9.69354 12.452 9.76022 12.4541 9.82718V13.4003C12.4546 13.4272 12.4573 13.454 12.4623 13.4805C12.4569 13.5067 12.4542 13.5334 12.4541 13.5601C12.454 13.6151 12.4648 13.6696 12.4858 13.7204C12.5068 13.7712 12.5377 13.8174 12.5766 13.8562C12.6154 13.8951 12.6616 13.926 12.7124 13.947C12.7632 13.968 12.8177 13.9788 12.8727 13.9787H14.7115C14.82 13.975 14.9228 13.9293 14.9983 13.8513C15.0737 13.7732 15.1159 13.6689 15.1159 13.5604C15.1159 13.4518 15.0737 13.3475 14.9983 13.2695C14.9228 13.1914 14.82 13.1457 14.7115 13.1421V13.144Z" fill="#FAE300"/>
<path d="M18.7377 13.2942L17.3337 11.4501L18.6024 10.1809C18.6851 10.0982 18.7316 9.98596 18.7316 9.86894C18.7316 9.75192 18.6851 9.63969 18.6024 9.55694C18.5196 9.47419 18.4074 9.4277 18.2904 9.4277C18.1734 9.4277 18.0611 9.47419 17.9784 9.55694L16.4093 11.128V9.82718C16.4113 9.76022 16.3999 9.69354 16.3757 9.63107C16.3516 9.5686 16.3151 9.51163 16.2684 9.46354C16.2218 9.41544 16.166 9.3772 16.1043 9.35109C16.0426 9.32498 15.9763 9.31152 15.9093 9.31152C15.8424 9.31152 15.7761 9.32498 15.7144 9.35109C15.6527 9.3772 15.5969 9.41544 15.5502 9.46354C15.5036 9.51163 15.4671 9.5686 15.4429 9.63107C15.4187 9.69354 15.4073 9.76022 15.4094 9.82718V13.5102C15.4134 13.6401 15.4679 13.7634 15.5612 13.8538C15.6545 13.9443 15.7794 13.9949 15.9093 13.9949C16.0393 13.9949 16.1642 13.9443 16.2575 13.8538C16.3508 13.7634 16.4052 13.6401 16.4093 13.5102V12.376L16.6973 12.0909L18.0254 13.8337C18.0607 13.8807 18.1049 13.9202 18.1554 13.9501C18.2059 13.9799 18.2619 13.9995 18.32 14.0078C18.3781 14.016 18.4373 14.0127 18.4941 13.9981C18.551 13.9835 18.6044 13.9578 18.6513 13.9225C18.6983 13.8873 18.7378 13.8431 18.7677 13.7926C18.7975 13.742 18.8171 13.6861 18.8254 13.628C18.8336 13.5699 18.8303 13.5107 18.8157 13.4538C18.8011 13.397 18.7754 13.3436 18.7401 13.2966L18.7377 13.2942Z" fill="#FAE300"/>
<path d="M12.0777 13.4139L10.727 9.72027L10.7226 9.71595C10.6362 9.49083 10.3866 9.32715 10.09 9.32715C9.76025 9.32715 9.4876 9.52827 9.43336 9.79179C9.42373 9.81161 9.41524 9.83197 9.40792 9.85275L8.07784 13.4139C8.03844 13.526 8.04518 13.6491 8.09658 13.7562C8.14798 13.8634 8.23983 13.9457 8.35192 13.9851C8.46401 14.0245 8.58717 14.0177 8.69429 13.9663C8.80141 13.9149 8.88372 13.8231 8.92312 13.711L9.15256 13.0553H11.0011L11.2305 13.711C11.2699 13.8231 11.3522 13.9149 11.4593 13.9663C11.5664 14.0177 11.6896 14.0245 11.8017 13.9851C11.9138 13.9457 12.0056 13.8634 12.057 13.7562C12.1084 13.6491 12.1152 13.526 12.0758 13.4139H12.0777ZM9.44776 12.2182L10.0689 10.446C10.0761 10.446 10.0818 10.446 10.089 10.446L10.7092 12.2163L9.44776 12.2182Z" fill="#FAE300"/>
</g>
<defs>
<clipPath id="clip0_285:5240">
<rect width="24" height="24" fill="white" transform="translate(0 0.5)"/>
</clipPath>
</defs>
</svg>
