<svg width="24" height="24" viewBox="0 0 24 24" fill="none" xmlns="http://www.w3.org/2000/svg">
<path d="M14.42 6.51986L18.78 6.9399L19.04 11.2098L10.79 19.6799L6.18997 14.9698L14.42 6.51986ZM14.09 4.51986C13.9526 4.51635 13.816 4.54112 13.6887 4.59273C13.5614 4.64435 13.4461 4.72163 13.35 4.81978L4.22997 14.1899C4.01989 14.4413 3.91596 14.7645 3.94023 15.0911C3.9645 15.4178 4.11506 15.7223 4.35997 15.9399L9.86997 21.5898C9.99717 21.7283 10.1517 21.8389 10.3239 21.9146C10.496 21.9904 10.6819 22.0296 10.87 22.0299C11.0073 22.0334 11.1439 22.0085 11.2712 21.9569C11.3985 21.9053 11.5138 21.828 11.61 21.7298L20.74 12.3498C20.8449 12.2403 20.925 12.1095 20.9751 11.9663C21.0251 11.8231 21.0438 11.6709 21.03 11.5199L20.73 6.36983C20.7032 6.03235 20.5615 5.71426 20.3286 5.46859C20.0957 5.22292 19.7855 5.06455 19.45 5.01986L14.23 4.52987L14.09 4.51986Z" fill="#CCCCCC"/>
<path d="M16.51 7.8999C16.2511 7.90361 16.0038 8.0076 15.82 8.18994C15.6337 8.3773 15.5292 8.63071 15.5292 8.8949C15.5292 9.15908 15.6337 9.41249 15.82 9.59985C15.908 9.69498 16.0147 9.77097 16.1335 9.82288C16.2522 9.87479 16.3804 9.90149 16.51 9.90149C16.6396 9.90149 16.7678 9.87479 16.8865 9.82288C17.0052 9.77097 17.1119 9.69498 17.2 9.59985C17.3862 9.41249 17.4908 9.15908 17.4908 8.8949C17.4908 8.63071 17.3862 8.3773 17.2 8.18994C17.0162 8.0076 16.7688 7.90361 16.51 7.8999Z" fill="#CCCCCC"/>
<path d="M3.98006 12.92C3.71977 12.9137 3.47223 12.806 3.29005 12.62C3.1038 12.4326 2.99927 12.1792 2.99927 11.915C2.99927 11.6508 3.1038 11.3973 3.29005 11.2099L11.9801 2.29002C12.0678 2.1926 12.1761 2.11595 12.2972 2.06578C12.4184 2.0156 12.5491 1.99313 12.6801 1.99998L16.7401 2.06004C17.0053 2.06004 17.2596 2.16535 17.4472 2.35289C17.6347 2.54042 17.7401 2.79482 17.7401 3.06004C17.7401 3.32526 17.6347 3.57954 17.4472 3.76707C17.2596 3.95461 17.0053 4.06004 16.7401 4.06004L13.0901 4.00999L4.69006 12.63C4.59914 12.726 4.48878 12.8015 4.36635 12.8515C4.24391 12.9016 4.11222 12.925 3.98006 12.92Z" fill="#CCCCCC"/>
</svg>
