<svg width="24" height="24" viewBox="0 0 24 24" fill="none" xmlns="http://www.w3.org/2000/svg">
<g clip-path="url(#clip0_221:1883)">
<path d="M20.7 6.35001C20.6731 6.00989 20.5304 5.68928 20.2956 5.44174C20.0608 5.19421 19.7482 5.03476 19.41 4.99002L14.19 4.5H14.08C13.9443 4.49787 13.8096 4.52338 13.6841 4.57495C13.5586 4.62653 13.4449 4.70311 13.35 4.80002L4.22997 14.16C4.01989 14.4114 3.91596 14.7347 3.94023 15.0614C3.9645 15.3881 4.11505 15.6924 4.35996 15.91L9.86997 21.57C9.99767 21.7072 10.1525 21.8162 10.3247 21.8903C10.4969 21.9643 10.6826 22.0017 10.87 22C11.0056 22.0021 11.1403 21.9767 11.2658 21.9251C11.3913 21.8735 11.505 21.7969 11.6 21.7L20.74 12.32C20.8425 12.2109 20.9212 12.0817 20.9712 11.9405C21.0211 11.7993 21.0411 11.6493 21.03 11.5L20.7 6.35001ZM15.82 8.20001C15.908 8.10489 16.0147 8.02899 16.1334 7.97708C16.2522 7.92517 16.3804 7.89838 16.51 7.89838C16.6396 7.89838 16.7677 7.92517 16.8865 7.97708C17.0052 8.02899 17.112 8.10489 17.2 8.20001C17.3862 8.38738 17.4908 8.64081 17.4908 8.905C17.4908 9.16919 17.3862 9.42266 17.2 9.61002C17.014 9.78731 16.7669 9.8862 16.51 9.8862C16.253 9.8862 16.0059 9.78731 15.82 9.61002C15.6337 9.42266 15.5292 9.16919 15.5292 8.905C15.5292 8.64081 15.6337 8.38738 15.82 8.20001Z" fill="#FFE000"/>
<path d="M4.66003 12.67L13.06 4.05002L16.71 4.10001C16.9753 4.10001 17.2296 3.99467 17.4171 3.80713C17.6047 3.6196 17.71 3.36523 17.71 3.10001C17.71 2.8348 17.6047 2.58046 17.4171 2.39292C17.2296 2.20538 16.9753 2.10001 16.71 2.10001L12.65 2.04001C12.5187 2.03715 12.3883 2.06243 12.2675 2.11417C12.1468 2.16592 12.0385 2.24295 11.95 2.34003L3.26004 11.26C3.07379 11.4474 2.96924 11.7008 2.96924 11.965C2.96924 12.2292 3.07379 12.4827 3.26004 12.67C3.4455 12.8444 3.69048 12.9415 3.94504 12.9415C4.1996 12.9415 4.44458 12.8444 4.63004 12.67H4.66003Z" fill="#FFE000"/>
</g>
<defs>
<clipPath id="clip0_221:1883">
<rect width="18" height="20" fill="white" transform="translate(3 2)"/>
</clipPath>
</defs>
</svg>
