<svg width="20" height="19" viewBox="0 0 20 19" fill="none" xmlns="http://www.w3.org/2000/svg">
<path d="M18 2.98999V12.99H15.69L15.12 13.99L14.19 15.52L13.86 16.09L13.54 15.52L12.63 13.96L12.05 12.96H2V2.95996H18V2.98999ZM18 0.959961H2C1.46957 0.959961 0.960858 1.1707 0.585785 1.54578C0.210712 1.92085 0 2.42953 0 2.95996V12.96C0 13.4904 0.210712 13.9992 0.585785 14.3743C0.960858 14.7493 1.46957 14.96 2 14.96H10.92L11.83 16.52L12.95 18.46C13.0448 18.624 13.1812 18.7603 13.3453 18.855C13.5094 18.9497 13.6955 18.9995 13.885 18.9995C14.0745 18.9995 14.2606 18.9497 14.4247 18.855C14.5889 18.7603 14.7252 18.624 14.82 18.46L15.94 16.52L16.85 14.96H18C18.5304 14.96 19.0391 14.7493 19.4142 14.3743C19.7893 13.9992 20 13.4904 20 12.96V2.95996C20 2.42953 19.7893 1.92085 19.4142 1.54578C19.0391 1.1707 18.5304 0.959961 18 0.959961Z" fill="#CCCCCC"/>
</svg>
