<svg width="24" height="24" viewBox="0 0 24 24" fill="none" xmlns="http://www.w3.org/2000/svg">
<path d="M11.96 2C9.98215 2 8.04876 2.58649 6.40427 3.6853C4.75978 4.78412 3.47804 6.34596 2.72116 8.17322C1.96429 10.0005 1.76626 12.0111 2.15212 13.9509C2.53797 15.8907 3.49036 17.6725 4.88889 19.071C6.28741 20.4696 8.06925 21.422 10.0091 21.8079C11.9489 22.1937 13.9595 21.9956 15.7868 21.2388C17.6141 20.4819 19.1758 19.2003 20.2747 17.5558C21.3735 15.9113 21.96 13.9778 21.96 12C21.96 9.34784 20.9064 6.80432 19.031 4.92896C17.1557 3.05359 14.6121 2 11.96 2ZM11.96 4C13.3761 4.00204 14.7663 4.37994 15.9886 5.09509C17.2108 5.81025 18.2214 6.83704 18.9169 8.07056C19.6125 9.30408 19.9682 10.7001 19.9476 12.1161C19.9271 13.5321 19.531 14.9172 18.8 16.13C18.4904 15.1621 17.9878 14.2671 17.3227 13.4988C16.6575 12.7305 15.8436 12.105 14.93 11.66C15.4541 11.0876 15.8005 10.3751 15.9267 9.60925C16.0529 8.84343 15.9536 8.05742 15.6409 7.34705C15.3282 6.63667 14.8156 6.03261 14.1656 5.60852C13.5155 5.18443 12.7561 4.95862 11.98 4.95862C11.2038 4.95862 10.4444 5.18443 9.79437 5.60852C9.14432 6.03261 8.63168 6.63667 8.31897 7.34705C8.00626 8.05742 7.90699 8.84343 8.03323 9.60925C8.15948 10.3751 8.5058 11.0876 9.02997 11.66C8.11405 12.1183 7.30168 12.7593 6.64298 13.5436C5.98427 14.3278 5.49317 15.2388 5.19995 16.2201C4.43636 15.0103 4.01116 13.6178 3.96863 12.1879C3.9261 10.7579 4.26781 9.34263 4.95815 8.0896C5.64848 6.83657 6.6622 5.79167 7.89368 5.0636C9.12516 4.33552 10.5294 3.95099 11.96 3.95007V4ZM11.96 11C11.5644 11 11.1777 10.8827 10.8488 10.663C10.5199 10.4432 10.2636 10.1308 10.1122 9.76538C9.96084 9.39993 9.92121 8.99783 9.99838 8.60986C10.0756 8.2219 10.266 7.86552 10.5457 7.58582C10.8255 7.30611 11.1818 7.11562 11.5698 7.03845C11.9578 6.96128 12.3599 7.00085 12.7253 7.15222C13.0908 7.3036 13.4031 7.56002 13.6229 7.88892C13.8427 8.21781 13.96 8.60444 13.96 9C13.96 9.53043 13.7492 10.0392 13.3742 10.4143C12.9991 10.7894 12.4904 11 11.96 11ZM6.86997 18.17C6.91097 16.8401 7.46415 15.5773 8.414 14.6455C9.36386 13.7137 10.637 13.1849 11.9675 13.1694C13.298 13.1539 14.583 13.6531 15.5543 14.5625C16.5256 15.4719 17.108 16.7214 17.18 18.05C15.7515 19.2826 13.9334 19.9706 12.0469 19.9926C10.1603 20.0145 8.32671 19.369 6.86997 18.17Z" fill="#CCCCCC"/>
</svg>
